nColumns=19
nRows=88
DataType=double
version=3
OpenSimVersion=4.1
endheader
time	ground_force_calcn_r_vx	ground_force_calcn_r_vy	ground_force_calcn_r_vz	ground_force_calcn_r_px	ground_force_calcn_r_py	ground_force_calcn_r_pz	ground_force_calcn_r_mx	ground_force_calcn_r_my	ground_force_calcn_r_mz	ground_force_calcn_l_vx	ground_force_calcn_l_vy	ground_force_calcn_l_vz	ground_force_calcn_l_px	ground_force_calcn_l_py	ground_force_calcn_l_pz	ground_force_calcn_l_mx	ground_force_calcn_l_my	ground_force_calcn_l_mz
0	-13.8638	75.4579	7.65991	0.0920949	0	-0.181744	-0.0858859	0.467459	0.0474529	0	0	0	0	0	0	0	0	0
0.01	-20.7855	107.531	8.68278	0.100899	0	-0.181636	-0.0923713	0.477871	0.0385865	0	0	0	0	0	0	0	0	0
0.02	-29.0597	145.016	9.55425	0.108582	0	-0.181391	-0.0999137	0.498596	0.0328496	0	0	0	0	0	0	0	0	0
0.03	-38.6489	187.402	10.1426	0.114745	0	-0.18101	-0.107832	0.52286	0.0282982	0	0	0	0	0	0	0	0	0
0.04	-49.4286	233.771	10.2991	0.120085	0	-0.180539	-0.115464	0.546081	0.0240584	0	0	0	0	0	0	0	0	0
0.05	-61.1617	282.993	9.8855	0.124973	0	-0.179996	-0.121972	0.564358	0.0197142	0	0	0	0	0	0	0	0	0
0.06	-73.5035	333.887	8.79009	0.129599	0	-0.179391	-0.126156	0.573059	0.0150867	0	0	0	0	0	0	0	0	0
0.07	-86.0427	385.262	6.94123	0.134046	0	-0.178732	-0.126523	0.566516	0.0102069	0	0	0	0	0	0	0	0	0
0.08	-98.3314	435.914	4.33546	0.138334	0	-0.178035	-0.121865	0.54024	0.00537305	0	0	0	0	0	0	0	0	0
0.09	-109.896	484.626	1.06063	0.142443	0	-0.177319	-0.112072	0.494225	0.00108164	0	0	0	0	0	0	0	0	0
0.1	-120.257	530.188	-2.70637	0.146341	0	-0.176611	-0.098208	0.432979	-0.00221016	0	0	0	0	0	0	0	0	0
0.11	-128.997	571.526	-6.74941	0.15	0	-0.175928	-0.0814591	0.360908	-0.00426212	0	0	0	0	0	0	0	0	0
0.12	-135.815	607.812	-10.8567	0.153408	0	-0.175279	-0.0625138	0.279768	-0.0049972	0	0	0	0	0	0	0	0	0
0.13	-140.528	638.466	-14.8292	0.156569	0	-0.17467	-0.0418179	0.189993	-0.00441285	0	0	0	0	0	0	0	0	0
0.14	-143.066	663.126	-18.4888	0.159492	0	-0.174106	-0.0197837	0.0916995	-0.00255669	0	0	0	0	0	0	0	0	0
0.15	-143.465	681.623	-21.6947	0.162196	0	-0.173586	0.00326894	-0.0155312	0.000494328	0	0	0	0	0	0	0	0	0
0.16	-141.845	693.964	-24.3501	0.164703	0	-0.17311	0.0270377	-0.13228	0.00464148	0	0	0	0	0	0	0	0	0
0.17	-138.398	700.311	-26.398	0.167041	0	-0.172675	0.0511187	-0.258666	0.00975036	0	0	0	0	0	0	0	0	0
0.18	-133.374	700.972	-27.8194	0.169241	0	-0.17228	0.0750251	-0.394309	0.0156489	0	0	0	0	0	0	0	0	0
0.19	-127.053	696.406	-28.6281	0.171331	0	-0.171922	0.0982247	-0.538392	0.0221324	0	0	0	0	0	0	0	0	0
0.2	-119.728	687.206	-28.8666	0.17334	0	-0.171599	0.120204	-0.689933	0.0289812	0	0	0	0	0	0	0	0	0
0.21	-111.681	674.077	-28.599	0.175284	0	-0.171311	0.140501	-0.848026	0.0359792	0	0	0	0	0	0	0	0	0
0.22	-103.162	657.8	-27.9051	0.177178	0	-0.171058	0.158696	-1.01191	0.0429269	0	0	0	0	0	0	0	0	0
0.23	-94.3853	639.195	-26.875	0.179027	0	-0.170834	0.174371	-1.18087	0.0496499	0	0	0	0	0	0	0	0	0
0.24	-85.5351	619.07	-25.6048	0.180836	0	-0.170642	0.187108	-1.35422	0.0560105	0	0	0	0	0	0	0	0	0
0.25	-76.7689	598.185	-24.1902	0.182611	0	-0.170474	0.196499	-1.53112	0.0619175	0	0	0	0	0	0	0	0	0
0.26	-68.2241	577.219	-22.7215	0.184365	0	-0.170325	0.202177	-1.71055	0.0673337	0	0	0	0	0	0	0	0	0
0.27	-60.0192	556.764	-21.2775	0.186121	0	-0.170187	0.203878	-1.89126	0.072277	0	0	0	0	0	0	0	0	0
0.28	-52.2515	537.332	-19.9208	0.18791	0	-0.170051	0.20149	-2.07204	0.076818	0	0	0	0	0	0	0	0	0
0.29	-44.9953	519.361	-18.6968	0.189767	0	-0.169912	0.195086	-2.25179	0.0810634	0	0	0	0	0	0	0	0	0
0.3	-38.3015	503.228	-17.6325	0.191731	0	-0.169764	0.184928	-2.4297	0.0851338	0	0	0	0	0	0	0	0	0
0.31	-32.1977	489.25	-16.741	0.193836	0	-0.169603	0.171461	-2.60538	0.08915	0	0	0	0	0	0	0	0	0
0.32	-26.6879	477.682	-16.0253	0.196112	0	-0.169429	0.155254	-2.77886	0.0932251	0	0	0	0	0	0	0	0	0
0.33	-21.7529	468.717	-15.4842	0.198576	0	-0.169244	0.136927	-2.95041	0.0974678	0	0	0	0	0	0	0	0	0
0.34	-17.35	462.482	-15.1169	0.201235	0	-0.169046	0.11706	-3.12037	0.101994	0	0	0	0	0	0	0	0	0
0.35	-13.4167	459.041	-14.9258	0.204082	0	-0.168836	0.0961294	-3.28898	0.106942	0	0	0	0	0	0	0	0	0
0.36	-9.87666	458.395	-14.9174	0.207102	0	-0.168612	0.0744671	-3.45617	0.112473	0	0	0	0	0	0	0	0	0
0.37	-6.64566	460.494	-15.1009	0.210277	0	-0.168371	0.0522599	-3.62122	0.11875	0	0	0	0	0	0	0	0	0
0.38	-3.63778	465.233	-15.4863	0.213583	0	-0.168113	0.0295774	-3.78263	0.125913	0	0	0	0	0	0	0	0	0
0.39	-0.769875	472.46	-16.0815	0.217001	0	-0.167836	0.00641684	-3.93791	0.134038	0	0	0	0	0	0	0	0	0
0.4	2.03448	481.98	-16.8906	0.220516	0	-0.167541	-0.0172371	-4.08357	0.143105	0	0	0	0	0	0	0	0	0
0.41	4.84191	493.554	-17.9113	0.224116	0	-0.167229	-0.0413523	-4.21519	0.152971	0	0	0	0	0	0	0	0	0
0.42	7.70706	506.909	-19.1315	0.227795	0	-0.166909	-0.0657978	-4.32766	0.163333	0	0	0	0	0	0	0	0	0
0.43	10.6723	521.739	-20.5258	0.231549	0	-0.166583	-0.0903272	-4.41585	0.173724	0	0	0	0	0	0	0	0	0
0.44	13.7709	537.708	-22.0537	0.235374	0	-0.166265	-0.114615	-4.47535	0.183554	0	0	0	0	0	0	0	0	0
0.45	17.0311	554.458	-23.6615	0.239264	0	-0.165964	-0.138321	-4.50311	0.19217	0	0	0	0	0	0	0	0	0
0.46	20.4785	571.607	-25.2839	0.243207	0	-0.165691	-0.161138	-4.49777	0.19895	0	0	0	0	0	0	0	0	0
0.47	24.1367	588.756	-26.8491	0.247186	0	-0.165456	-0.182837	-4.45986	0.203384	0	0	0	0	0	0	0	0	0
0.48	28.0261	605.494	-28.2845	0.251175	0	-0.165268	-0.203276	-4.39171	0.205151	0	0	0	0	0	0	0	0	0
0.49	32.1609	621.399	-29.5226	0.255147	0	-0.165128	-0.222384	-4.29682	0.204141	0	0	0	0	0	0	0	0	0
0.5	36.5454	636.042	-30.5073	0.259076	0	-0.165038	-0.240128	-4.17924	0.200454	0	0	0	0	0	0	0	0	0
0.51	41.172	648.992	-31.1976	0.262936	0	-0.164994	-0.256492	-4.04307	0.194354	0	0	0	0	0	0	0	0	0
0.52	46.0217	659.819	-31.5647	0.266702	0	-0.164992	-0.271501	-3.89254	0.186213	0	0	0	0	0	0	0	0	0
0.53	51.0649	668.101	-31.5911	0.270352	0	-0.165028	-0.28523	-3.73178	0.176457	0	0	0	0	0	0	0	0	0
0.54	56.2601	673.428	-31.2704	0.273866	0	-0.165096	-0.29779	-3.56451	0.165517	0	0	0	0	0	0	0	0	0
0.55	61.5484	675.409	-30.6073	0.277231	0	-0.165193	-0.309266	-3.39377	0.153794	0	0	0	0	0	0	0	0	0
0.56	66.845	673.68	-29.6185	0.280434	0	-0.165313	-0.319649	-3.2215	0.141634	2.38181	27.9889	-7.89933	0.693569	0	-0.237543	0.00944057	0.110937	-0.0313099
0.57	72.0335	667.906	-28.3316	0.283475	0	-0.165451	-0.328768	-3.04839	0.129308	1.4942	44.5621	-9.44322	0.727416	0	-0.250976	0.00701344	0.209164	-0.0443242
0.58	76.9631	657.802	-26.7835	0.286358	0	-0.165604	-0.336269	-2.87408	0.117023	-0.00726638	64.6448	-11.0592	0.747109	0	-0.258407	-2.90841e-05	0.258744	-0.0442651
0.59	81.4536	643.149	-25.0165	0.289097	0	-0.165767	-0.341635	-2.69752	0.104925	-2.27036	88.2196	-12.6561	0.760626	0	-0.263078	-0.00727148	0.282549	-0.0405349
0.6	85.3073	623.814	-23.0747	0.291711	0	-0.165937	-0.344281	-2.51757	0.0931244	-5.42603	115.06	-14.1133	0.770997	0	-0.266314	-0.0136804	0.290094	-0.0355832
0.61	88.3236	599.776	-21.0026	0.294221	0	-0.16611	-0.343651	-2.33362	0.0817172	-9.5009	144.864	-15.2972	0.779624	0	-0.268769	-0.0188171	0.286912	-0.0302969
0.62	90.3136	571.148	-18.8451	0.296653	0	-0.166282	-0.339297	-2.14573	0.0707986	-14.4283	177.341	-16.0691	0.787217	0	-0.270794	-0.0225027	0.276584	-0.0250616
0.63	91.1153	538.193	-16.6482	0.299031	0	-0.166448	-0.330895	-1.95451	0.0604599	-20.0893	212.175	-16.3017	0.79414	0	-0.272584	-0.0247195	0.261078	-0.020059
0.64	90.6062	501.336	-14.4604	0.301385	0	-0.1666	-0.318219	-1.76075	0.0507866	-26.3071	248.98	-15.9042	0.800579	0	-0.274241	-0.0254266	0.240648	-0.0153719
0.65	88.7106	461.15	-12.3308	0.30374	0	-0.166729	-0.301154	-1.56551	0.0418604	-32.8622	287.225	-14.8332	0.806626	0	-0.275813	-0.0244192	0.213431	-0.0110222
0.66	85.4081	418.349	-10.3043	0.306128	0	-0.166825	-0.279798	-1.37052	0.033757	-39.5044	326.18	-13.1037	0.812327	0	-0.277321	-0.0212716	0.175635	-0.00705585
0.67	80.7449	373.767	-8.41757	0.308584	0	-0.166877	-0.254572	-1.17841	0.0265388	-45.9676	364.95	-10.7957	0.817718	0	-0.278769	-0.0154516	0.122674	-0.00362887
0.68	74.8357	328.339	-6.69994	0.311153	0	-0.166876	-0.226186	-0.99238	0.0202501	-52.0253	402.635	-8.03072	0.822847	0	-0.280164	-0.0066418	0.0514024	-0.00102524
0.69	67.8659	283.067	-5.17561	0.313891	0	-0.166806	-0.195525	-0.81553	0.0149112	-57.5268	438.511	-4.94219	0.827779	0	-0.281514	0.00497157	-0.037897	0.000427113
0.7	60.0936	238.978	-3.86172	0.316876	0	-0.166653	-0.163591	-0.650566	0.0105127	-62.3815	472.103	-1.67577	0.83257	0	-0.282829	0.0187452	-0.141863	0.000503557
0.71	51.837	197.053	-2.7642	0.320218	0	-0.16639	-0.131495	-0.499864	0.00701193	-66.5346	503.133	1.60615	0.837267	0	-0.28411	0.0337341	-0.255096	-0.000814344
0.72	43.4495	158.153	-1.87586	0.324087	0	-0.165976	-0.100325	-0.365174	0.00433134	-69.9469	531.432	4.7434	0.841896	0	-0.285358	0.0486891	-0.369922	-0.00330182
0.73	35.2864	122.95	-1.17742	0.328761	0	-0.165342	-0.0710429	-0.247538	0.00237053	-72.594	556.879	7.60627	0.846471	0	-0.286574	0.0621062	-0.476425	-0.00650737
0.74	27.6615	91.891	-0.641021	0.334753	0	-0.16435	-0.0442999	-0.147163	0.0010266	-74.4664	579.366	10.1087	0.850993	0	-0.287757	0.0724869	-0.563965	-0.00983997
0.75	20.8123	65.1958	-0.236761	0.3431	0	-0.162714	-0.020271	-0.0635001	0.000230602	-75.5698	598.778	12.2072	0.855454	0	-0.288913	0.0785957	-0.622754	-0.012696
0.76	14.8848	42.8793	0.0621047	0.356257	0	-0.15974	0.0015964	0.00459883	6.66077e-06	-75.9254	615.01	13.8969	0.859846	0	-0.290047	0.0795956	-0.644739	-0.0145687
0.77	9.9305	24.7812	0.276167	0.38164	0	-0.153229	0.0233661	0.0583093	0.000649813	-75.565	627.978	15.2004	0.864156	0	-0.291168	0.0751379	-0.624429	-0.0151145
0.78	0	0	0	0	0	0	0	0	0	-74.5297	637.657	16.1552	0.868374	0	-0.29228	0.065364	-0.559237	-0.0141684
0.79	0	0	0	0	0	0	0	0	0	-72.8694	644.098	16.8006	0.872489	0	-0.293389	0.0508386	-0.449366	-0.0117212
0.8	0	0	0	0	0	0	0	0	0	-70.6437	647.446	17.1706	0.876495	0	-0.294498	0.0324547	-0.297446	-0.00788841
0.81	0	0	0	0	0	0	0	0	0	-67.9222	647.939	17.2904	0.880388	0	-0.295608	0.0113114	-0.107904	-0.00287945
0.82	0	0	0	0	0	0	0	0	0	-64.7828	645.878	17.1776	0.884169	0	-0.296713	-0.0114058	0.113715	0.00302432
0.83	0	0	0	0	0	0	0	0	0	-61.3093	641.603	16.8486	0.887838	0	-0.29781	-0.0345201	0.361254	0.00948657
0.84	0	0	0	0	0	0	0	0	0	-57.5881	635.458	16.324	0.891399	0	-0.298891	-0.0569414	0.628322	0.0161407
0.85	0	0	0	0	0	0	0	0	0	-53.7058	627.773	15.6332	0.894854	0	-0.299953	-0.0777286	0.90858	0.0226261
0.86	0	0	0	0	0	0	0	0	0	-49.7442	618.85	14.8166	0.898207	0	-0.300989	-0.09612	1.19579	0.0286299
0.87	0	0	0	0	0	0	0	0	0	-45.776	608.956	13.9245	0.901462	0	-0.301999	-0.111559	1.48406	0.0339349
